<?xml version="1.0" standalone="no"?>
<!DOCTYPE svg PUBLIC "-//W3C//DTD SVG 20010904//EN"
 "http://www.w3.org/TR/2001/REC-SVG-20010904/DTD/svg10.dtd">
<svg version="1.0" xmlns="http://www.w3.org/2000/svg"
 width="670.000000pt" height="294.000000pt" viewBox="0 0 670.000000 294.000000"
 preserveAspectRatio="xMidYMid meet">

<g transform="translate(0.000000,294.000000) scale(0.100000,-0.100000)"
fill="#000000" stroke="none">
<path d="M3512 2932 l-22 -3 2 -242 3 -242 75 0 75 0 3 33 c3 31 2 32 -33 32
l-36 0 3 83 c3 82 3 82 31 85 24 3 28 7 25 30 -2 21 -9 28 -30 30 -27 3 -28 5
-28 63 0 58 0 59 29 59 29 0 46 26 35 55 -5 13 -86 23 -132 17z"/>
<path d="M3054 2916 c-10 -26 1 -51 23 -54 22 -3 22 -5 22 -204 0 -112 4 -205
9 -210 5 -5 22 -8 38 -6 l29 3 3 208 c2 199 3 207 22 207 11 0 20 5 20 10 0 6
4 10 10 10 6 0 11 -84 12 -217 3 -202 4 -218 21 -221 10 -2 29 -1 43 2 24 6
24 8 24 121 0 108 1 115 20 115 18 0 20 -8 22 -117 l3 -117 38 -2 c32 -3 37 0
38 19 1 12 1 121 2 242 l0 220 -41 3 -42 3 0 -90 c0 -84 -1 -91 -20 -91 -14 0
-20 7 -21 23 0 12 -1 51 -2 87 l-2 65 -133 3 c-109 2 -133 0 -138 -12z"/>
<path d="M28 2369 c-15 -8 -16 -84 -14 -901 1 -491 5 -899 9 -905 4 -7 4 -21
-2 -30 -5 -10 -10 -132 -10 -271 l-2 -252 379 0 c429 0 448 3 527 72 80 71 80
70 80 574 0 343 -3 444 -13 456 -11 14 -55 26 -277 75 -38 8 -105 24 -147 34
-43 10 -81 19 -85 19 -4 0 -2 5 5 12 11 11 43 17 117 22 22 2 45 4 50 5 16 5
-57 22 -88 21 -16 0 -33 2 -38 6 -14 8 90 104 113 104 10 0 18 3 18 8 0 4 19
15 41 25 27 12 38 22 32 28 -6 6 -50 -7 -124 -36 -63 -26 -179 -69 -258 -96
-147 -50 -188 -69 -198 -95 -8 -22 -23 -17 -23 9 0 13 10 33 23 44 34 32 145
85 184 90 19 2 55 13 80 25 41 19 44 22 24 29 -21 8 -21 9 -19 316 l3 308 40
3 c58 5 110 -13 123 -44 8 -17 12 -107 13 -280 0 -140 4 -254 8 -254 5 0 41
14 81 30 40 17 76 30 81 30 4 0 45 17 91 39 46 21 93 42 105 45 31 10 36 55
31 317 -3 202 -6 228 -24 269 -39 82 -113 132 -225 149 -80 13 -688 13 -711 0z
m522 -1229 c40 -21 42 -40 41 -413 l0 -361 -26 -25 c-22 -22 -34 -26 -88 -26
l-62 0 -5 145 c-3 80 -4 268 -2 418 l3 272 60 0 c33 0 69 -5 79 -10z"/>
<path d="M1305 2371 c-6 -10 -22 -126 -54 -397 -23 -183 -25 -234 -13 -234 10
0 89 28 110 39 28 15 206 53 232 49 31 -4 37 -24 9 -31 -20 -5 -21 -10 -15
-69 22 -208 29 -253 38 -265 7 -9 7 -17 1 -25 -11 -13 -9 -90 2 -163 4 -22 10
-73 13 -114 l7 -75 14 37 c8 20 17 37 20 37 13 0 -2 -105 -16 -113 -11 -7 -13
-19 -8 -48 6 -35 4 -40 -19 -49 -14 -5 -26 -16 -26 -25 0 -8 -5 -15 -11 -15
-6 0 -9 6 -6 14 9 23 -42 26 -81 5 -18 -11 -42 -17 -52 -14 -15 5 -17 2 -13
-15 8 -29 -16 -25 -27 5 -5 14 -15 25 -21 25 -15 0 -48 41 -49 60 0 9 -9 16
-20 17 -11 1 -32 11 -46 22 -15 12 -33 21 -41 21 -11 0 -13 7 -8 30 6 25 3 31
-19 41 -33 15 -37 59 -5 59 11 0 18 -4 15 -9 -4 -5 2 -7 13 -4 10 3 22 0 25
-6 4 -6 15 -11 25 -11 10 0 31 -16 47 -35 16 -19 45 -41 65 -49 21 -9 40 -20
44 -26 16 -26 27 -7 23 40 -3 28 -1 53 3 56 5 3 9 34 9 68 0 36 6 76 14 91 10
18 15 59 15 116 0 49 2 93 5 98 4 5 0 11 -6 14 -10 3 -8 10 5 25 21 23 44 155
34 194 -7 28 -47 35 -80 14 -12 -8 -51 -25 -87 -37 -36 -12 -69 -25 -75 -29
-5 -5 -21 -10 -35 -12 -24 -3 -25 -6 -27 -76 -1 -69 0 -72 23 -78 34 -9 30
-17 -17 -37 -45 -20 -50 -45 -11 -62 31 -14 28 -41 -9 -74 -27 -25 -29 -31
-19 -51 9 -18 9 -24 -5 -34 -10 -7 -18 -33 -22 -71 -3 -33 -9 -67 -14 -75 -5
-10 -1 -19 14 -27 15 -8 17 -12 7 -13 -31 -1 -40 -18 -49 -90 -23 -171 -32
-246 -56 -450 -32 -268 -54 -456 -60 -496 l-4 -31 177 -5 c97 -3 180 -2 183 1
4 3 12 60 18 126 6 66 17 183 26 260 8 77 18 164 21 193 l5 52 109 0 108 0 6
-28 c6 -26 22 -173 47 -407 6 -60 14 -130 18 -155 l6 -45 204 -3 204 -2 -6 62
c-18 199 -48 453 -72 613 -8 55 -19 152 -25 215 -11 132 -25 242 -47 385 -9
55 -17 128 -19 163 -2 35 -8 70 -15 78 -6 8 -8 14 -5 14 4 0 2 10 -5 21 -8 17
-8 23 2 30 11 6 11 26 0 111 -8 57 -16 130 -20 163 -6 51 -8 56 -14 32 -4 -15
-5 -32 -2 -36 5 -10 -25 -25 -33 -16 -3 3 0 16 6 30 13 29 16 46 4 29 -10 -16
-62 -27 -62 -13 0 14 38 47 68 59 27 12 27 9 2 235 -16 141 -24 183 -37 193
-10 7 -47 12 -88 12 -43 0 -76 -5 -84 -12 -11 -10 -14 -10 -18 0 -6 15 -358
18 -368 3z m585 -825 c0 -2 -8 -10 -17 -17 -16 -13 -17 -12 -4 4 13 16 21 21
21 13z"/>
<path d="M2082 2228 l3 -152 87 3 c143 5 127 54 127 -416 l0 -406 39 -41 c22
-23 42 -48 45 -57 3 -9 19 -19 36 -22 18 -4 31 -13 31 -21 0 -14 94 -56 128
-56 25 -1 58 -21 82 -53 18 -22 25 -25 36 -16 12 10 15 55 14 248 0 130 -1
367 0 528 l0 292 108 3 107 3 0 155 0 155 -423 3 -423 2 3 -152z"/>
<path d="M2960 2118 c-2 -923 0 -1276 6 -1373 3 -60 7 -125 7 -144 1 -19 8
-36 15 -38 16 -6 16 -23 -1 -23 -11 0 -15 -47 -21 -227 -4 -126 -9 -242 -11
-258 -7 -54 -2 -56 165 -53 l154 3 -1 260 c-2 345 0 315 -23 315 -25 0 -26 16
-1 23 17 4 19 15 20 97 1 75 -2 91 -13 87 -15 -6 -42 18 -48 42 -2 10 8 17 27
21 26 5 30 10 29 38 -1 18 2 32 8 32 5 0 9 85 8 212 -1 279 -2 274 9 263 8 -9
41 -180 58 -298 7 -49 30 -59 55 -24 23 32 34 34 43 7 4 -11 10 -18 15 -15 13
8 40 -6 40 -21 0 -8 -4 -14 -10 -14 -16 0 -12 -26 6 -41 13 -10 15 -25 11 -67
-5 -49 -4 -52 14 -47 25 8 25 -10 -1 -42 -18 -24 -19 -28 -5 -43 9 -10 18 -33
20 -53 3 -20 6 -42 7 -49 2 -6 -5 -14 -14 -16 -17 -3 -23 12 -19 46 1 7 -8 16
-21 22 -13 5 -19 9 -14 9 5 1 3 7 -3 15 -7 8 -11 20 -10 28 3 26 -1 36 -18 43
-14 5 -15 3 -7 -5 9 -9 8 -19 -2 -40 -15 -29 -17 -10 31 -345 8 -54 18 -106
22 -115 9 -19 9 -24 23 -155 6 -60 15 -123 19 -140 l7 -30 140 0 139 0 6 45
c15 105 60 381 74 455 9 44 20 114 26 155 21 152 29 197 35 214 3 9 -1 27 -10
41 -13 20 -22 24 -41 19 -20 -5 -25 -2 -25 12 0 25 8 35 52 64 21 14 38 31 38
38 0 7 4 11 9 7 12 -7 16 9 31 105 23 154 42 250 49 250 4 0 8 -57 9 -127 1
-224 0 -213 20 -213 39 0 148 44 174 71 31 32 65 52 77 45 9 -6 51 21 51 34 0
5 -7 6 -17 3 -18 -7 -12 8 17 42 33 38 40 136 38 550 -1 220 -5 405 -10 412
-5 6 -5 14 -1 16 7 5 8 37 4 120 -1 16 -21 17 -270 17 -307 0 -276 11 -286
-100 -3 -36 -8 -72 -10 -80 -7 -21 -73 -513 -79 -585 -3 -33 -12 -98 -20 -145
-8 -47 -22 -143 -31 -215 -21 -169 -26 -195 -34 -195 -4 0 -15 60 -25 133 -10
72 -27 191 -37 262 -10 72 -21 153 -24 180 -4 28 -17 127 -30 220 -13 94 -33
242 -45 330 -11 88 -23 167 -26 176 -4 14 -36 16 -274 18 l-270 2 0 -263z"/>
<path d="M4751 2358 c-13 -32 -54 -403 -48 -430 3 -13 14 -48 26 -78 12 -30
17 -58 12 -63 -8 -8 -21 17 -41 78 -4 11 -8 -13 -8 -52 -1 -40 -5 -81 -10 -90
-13 -24 -34 -187 -27 -205 3 -8 1 -27 -5 -42 -7 -20 -7 -32 0 -41 8 -10 7 -22
-4 -43 -17 -33 -24 -71 -30 -177 -3 -38 -11 -101 -20 -140 -8 -38 -17 -110
-20 -160 -3 -49 -10 -124 -17 -165 -7 -41 -13 -93 -14 -115 0 -22 -6 -53 -13
-68 -7 -16 -12 -40 -12 -55 0 -15 -14 -130 -30 -257 -16 -126 -30 -236 -30
-243 0 -11 35 -13 182 -10 l183 3 11 105 c6 58 17 157 24 220 7 63 14 160 15
215 3 95 4 100 26 106 43 12 149 9 183 -5 32 -13 33 -16 39 -86 3 -39 10 -77
15 -83 5 -7 8 -30 7 -52 -1 -22 0 -44 3 -50 4 -5 5 -22 3 -36 -3 -31 28 -319
35 -331 3 -4 95 -8 205 -8 l199 0 0 43 c0 24 -4 68 -9 98 -9 51 -26 199 -35
301 -4 44 -34 303 -57 488 -5 47 -15 101 -21 120 -7 19 -13 53 -15 75 -8 110
-21 194 -34 210 -4 6 -4 17 0 24 8 13 6 40 -7 71 -3 8 -7 26 -8 39 -2 13 -8
27 -14 31 -7 5 -6 11 4 20 9 7 12 17 8 24 -4 6 -7 40 -7 76 l-1 65 -82 25
c-45 14 -82 28 -82 32 0 14 53 21 84 10 71 -24 76 -24 76 -5 0 11 -6 25 -12
31 -9 9 -10 17 -2 30 8 12 4 84 -17 266 -15 137 -30 260 -33 272 -7 26 -3 25
-156 30 -41 1 -80 -2 -87 -8 -8 -6 -19 -6 -32 1 -11 6 -78 11 -156 11 -131 0
-136 -1 -144 -22z"/>
<path d="M5630 2372 c-7 -3 -10 -124 -10 -345 1 -288 3 -346 17 -374 8 -18 18
-33 22 -34 3 0 20 -2 36 -3 32 -4 155 -55 155 -65 0 -3 10 -7 23 -7 20 -1 88
-30 195 -83 30 -15 47 -39 20 -28 -7 2 -60 21 -118 42 -58 20 -114 41 -125 46
-70 29 -210 77 -214 73 -3 -3 0 -8 6 -12 8 -5 11 -41 8 -115 -1 -59 1 -110 6
-113 5 -3 9 -14 9 -26 0 -17 2 -18 15 -8 8 7 15 19 15 26 0 10 13 14 39 14 22
0 43 5 47 11 5 9 -3 10 -30 5 -34 -6 -49 4 -26 19 5 3 6 13 3 22 -5 14 -1 15
33 9 21 -4 49 -7 61 -7 31 1 39 -17 11 -28 -21 -9 -20 -10 12 -10 19 0 46 6
60 14 14 8 31 17 37 21 7 3 32 -4 55 -17 24 -12 55 -29 71 -36 39 -21 34 -36
-12 -31 -67 6 -71 -16 -34 -207 8 -44 19 -102 24 -128 4 -26 11 -57 14 -67 3
-11 29 -129 56 -262 28 -134 61 -295 75 -358 13 -63 32 -153 41 -200 9 -47 20
-90 24 -95 7 -9 164 -11 418 -6 l33 1 -5 98 c-3 53 -6 248 -6 432 0 184 0 562
0 840 1 336 -3 521 -10 554 -8 35 -9 52 -1 61 11 13 13 317 3 358 -4 15 -20
17 -164 17 l-159 0 -1 -107 c-1 -60 -1 -111 0 -115 0 -4 1 -187 1 -407 1 -338
3 -406 16 -437 14 -34 14 -38 0 -46 -12 -7 -14 -14 -6 -28 7 -13 7 -28 0 -46
-6 -16 -8 -57 -4 -100 5 -50 3 -74 -4 -74 -13 0 -17 13 -32 105 -6 39 -16 80
-22 92 -6 13 -8 26 -5 30 4 3 2 12 -3 19 -15 17 -22 52 -20 104 0 25 -4 65 -9
90 -5 25 -16 83 -25 130 -9 47 -25 135 -37 195 -12 61 -23 126 -26 145 -2 19
-6 42 -9 50 -3 8 -12 53 -21 100 -8 47 -18 103 -23 125 -4 22 -13 69 -20 105
-6 35 -13 67 -16 69 -5 5 -449 8 -464 3z"/>
<path d="M898 1553 c-26 -9 -45 -20 -42 -25 4 -6 10 -6 17 1 16 16 54 13 61
-4 10 -26 26 -16 26 15 0 34 1 34 -62 13z"/>
<path d="M5640 1255 c-12 -31 -11 -15 -13 -700 l-2 -550 132 -1 c158 -2 175 1
188 29 6 14 7 98 3 227 -3 113 -6 216 -5 230 2 47 -2 705 -5 745 -4 43 -8 45
-53 26 -16 -7 -50 -16 -74 -19 -41 -5 -43 -4 -36 17 7 24 -5 27 -53 10 -22 -7
-36 -7 -51 1 -18 9 -23 7 -31 -15z"/>
<path d="M714 1256 c-22 -17 -15 -21 48 -29 43 -6 51 -1 35 24 -14 23 -55 25
-83 5z"/>
<path d="M4390 1183 c-8 -3 -32 -23 -52 -46 -29 -32 -38 -38 -38 -23 0 26 -19
9 -56 -50 -28 -44 -69 -71 -136 -87 -15 -4 -29 -15 -32 -25 -4 -14 -11 -893
-7 -940 1 -10 40 -12 179 -10 l177 3 -4 585 c-1 322 -6 588 -10 591 -3 4 -13
4 -21 2z"/>
<path d="M2317 1043 c-8 -13 -17 -369 -18 -735 -1 -211 2 -282 11 -293 11 -13
43 -15 204 -13 l191 3 0 238 c0 200 -2 239 -15 247 -13 9 -13 11 0 20 12 8 15
38 13 178 l-1 169 -39 51 c-21 29 -43 52 -50 52 -7 0 -16 6 -20 13 -14 23 -62
38 -84 27 -10 -6 -19 -15 -19 -20 0 -19 -76 -11 -95 10 -10 11 -24 20 -30 20
-7 0 -19 10 -27 22 -9 13 -17 17 -21 11z"/>
<path d="M3364 998 c4 -24 15 -50 26 -60 11 -9 20 -28 20 -42 0 -19 5 -26 20
-26 24 0 26 22 5 40 -8 7 -15 22 -15 34 0 11 -5 38 -11 59 -7 27 -15 37 -31
37 -19 0 -20 -4 -14 -42z"/>
</g>
</svg>
